<svg width="24" height="24" viewBox="0 0 24 24" fill="none" xmlns="http://www.w3.org/2000/svg">
<path d="M6 15.75H11.625V21H6V15.75Z" fill="#FFB300"/>
<path d="M19.092 14.9006L17.796 11.013C17.7462 10.8636 17.6507 10.7336 17.523 10.6416C17.3952 10.5495 17.2417 10.5 17.0842 10.5H10.5V15.75H18.48C18.5823 15.75 18.6831 15.7258 18.7741 15.6792C18.8651 15.6326 18.9438 15.565 19.0035 15.4821C19.0633 15.3991 19.1025 15.3031 19.1179 15.202C19.1333 15.1009 19.1244 14.9976 19.092 14.9006Z" fill="#FFB300"/>
<path d="M22.842 20.1506L21.546 16.263C21.4962 16.1136 21.4007 15.9836 21.273 15.8916C21.1452 15.7995 20.9917 15.75 20.8342 15.75H14.25V21H22.23C22.3323 21 22.4331 20.9758 22.5241 20.9292C22.6151 20.8826 22.6938 20.815 22.7535 20.7321C22.8133 20.6491 22.8525 20.5531 22.8679 20.452C22.8833 20.3509 22.8744 20.2476 22.842 20.1506Z" fill="#FFA000"/>
<path d="M8.625 20.355C8.625 20.5261 8.55705 20.6901 8.43608 20.8111C8.31512 20.932 8.15107 21 7.98 21H1.77C1.59894 21 1.43488 20.932 1.31392 20.8111C1.19296 20.6901 1.125 20.5261 1.125 20.355C1.12492 20.2855 1.13607 20.2165 1.158 20.1506L2.454 16.263C2.50376 16.1136 2.59929 15.9836 2.72704 15.8916C2.85479 15.7995 3.00828 15.75 3.16575 15.75H6.58463C6.74203 15.75 6.89544 15.7996 7.02312 15.8917C7.15079 15.9837 7.24626 16.1137 7.296 16.263L8.592 20.1506C8.61389 20.2164 8.62504 20.2857 8.625 20.355ZM12.375 15.105C12.375 15.2761 12.307 15.4401 12.1861 15.5611C12.0651 15.682 11.9011 15.75 11.73 15.75H5.52C5.34894 15.75 5.18488 15.682 5.06392 15.5611C4.94296 15.4401 4.875 15.2761 4.875 15.105C4.87492 15.0355 4.88607 14.9665 4.908 14.9006L6.204 11.013C6.25376 10.8636 6.34929 10.7336 6.47704 10.6416C6.60479 10.5495 6.75828 10.5 6.91575 10.5H10.3346C10.492 10.5 10.6454 10.5496 10.7731 10.6417C10.9008 10.7337 10.9963 10.8637 11.046 11.013L12.342 14.9006C12.3639 14.9664 12.375 15.0357 12.375 15.105Z" fill="#FFD54F"/>
<path d="M12.375 15.105C12.375 15.2761 12.3071 15.4401 12.1861 15.5611C12.0651 15.682 11.9011 15.75 11.73 15.75H5.52001C5.34895 15.75 5.18489 15.682 5.06393 15.5611C4.94297 15.4401 4.87501 15.2761 4.87501 15.105C4.87462 15.0361 4.88603 14.9676 4.90876 14.9025L5.06251 14.4375C5.18433 14.5579 5.34875 14.6253 5.52001 14.625H8.89501C9.06607 14.625 9.23013 14.557 9.35109 14.4361C9.47205 14.3151 9.54001 14.1511 9.54001 13.98C9.5404 13.9111 9.52898 13.8426 9.50626 13.7775L8.62501 11.0138C8.57534 10.8641 8.47975 10.7339 8.35184 10.6417C8.22393 10.5494 8.0702 10.4999 7.91251 10.5H10.335C10.4926 10.5004 10.646 10.5502 10.7738 10.6424C10.9016 10.7345 10.9973 10.8644 11.0475 11.0138L12.3413 14.9025C12.364 14.9676 12.3754 15.0361 12.375 15.105Z" fill="#FFCA28"/>
<path d="M8.62501 20.355C8.62501 20.5261 8.55705 20.6901 8.43609 20.8111C8.31513 20.932 8.15107 21 7.98001 21H1.77001C1.59895 21 1.43489 20.932 1.31393 20.8111C1.19296 20.6901 1.12501 20.5261 1.12501 20.355C1.12462 20.2861 1.13603 20.2176 1.15876 20.1525L1.31251 19.6875C1.43433 19.8079 1.59875 19.8753 1.77001 19.875H5.14501C5.31607 19.875 5.48013 19.807 5.60109 19.6861C5.72205 19.5651 5.79001 19.4011 5.79001 19.23C5.79039 19.1611 5.77898 19.0926 5.75626 19.0275L4.87501 16.2637C4.82534 16.1141 4.72975 15.9839 4.60184 15.8917C4.47393 15.7994 4.3202 15.7499 4.16251 15.75H6.58501C6.74257 15.7504 6.89603 15.8002 7.02383 15.8924C7.15163 15.9845 7.24734 16.1144 7.29751 16.2637L8.59126 20.1525C8.61399 20.2176 8.6254 20.2861 8.62501 20.355Z" fill="#FFCA28"/>
<path d="M16.125 20.355C16.125 20.5261 16.0571 20.6901 15.9361 20.8111C15.8152 20.932 15.6511 21 15.48 21H9.27005C9.09898 21 8.93492 20.932 8.81396 20.8111C8.693 20.6901 8.62505 20.5261 8.62505 20.355C8.62497 20.2855 8.63611 20.2165 8.65805 20.1506L9.95405 16.263C10.0038 16.1136 10.0993 15.9836 10.2271 15.8916C10.3548 15.7995 10.5083 15.75 10.6658 15.75H14.0847C14.2421 15.75 14.3955 15.7996 14.5232 15.8917C14.6508 15.9837 14.7463 16.1137 14.796 16.263L16.092 20.1506C16.1139 20.2164 16.1251 20.2857 16.125 20.355ZM12 6.375C11.9006 6.375 11.8052 6.33549 11.7349 6.26517C11.6646 6.19484 11.625 6.09946 11.625 6V3C11.625 2.90054 11.6646 2.80516 11.7349 2.73484C11.8052 2.66451 11.9006 2.625 12 2.625C12.0995 2.625 12.1949 2.66451 12.2652 2.73484C12.3355 2.80516 12.375 2.90054 12.375 3V6C12.375 6.09946 12.3355 6.19484 12.2652 6.26517C12.1949 6.33549 12.0995 6.375 12 6.375ZM8.25042 7.5C8.18862 7.50014 8.12775 7.48497 8.07325 7.45585C8.01874 7.42673 7.97229 7.38457 7.93805 7.33313L6.43805 5.08313C6.41071 5.04215 6.39172 4.9962 6.38215 4.94789C6.37258 4.89957 6.37262 4.84985 6.38226 4.80155C6.40174 4.70401 6.45917 4.6182 6.54192 4.563C6.62467 4.5078 6.72596 4.48774 6.8235 4.50722C6.8718 4.51686 6.91772 4.53593 6.95865 4.56332C6.99958 4.59071 7.03472 4.6259 7.06205 4.66687L8.56205 6.91687C8.59971 6.97332 8.62135 7.03893 8.62466 7.10671C8.62797 7.17449 8.61282 7.2419 8.58084 7.30175C8.54885 7.3616 8.50123 7.41164 8.44304 7.44656C8.38485 7.48147 8.31828 7.49994 8.25042 7.5ZM15.7497 7.5C15.6818 7.49994 15.6152 7.48147 15.5571 7.44656C15.4989 7.41164 15.4512 7.3616 15.4193 7.30175C15.3873 7.2419 15.3721 7.17449 15.3754 7.10671C15.3787 7.03893 15.4004 6.97332 15.438 6.91687L16.938 4.66687C16.9932 4.58413 17.0791 4.5267 17.1766 4.50722C17.2741 4.48774 17.3754 4.5078 17.4582 4.563C17.5409 4.6182 17.5984 4.70401 17.6178 4.80155C17.6373 4.89909 17.6172 5.00038 17.562 5.08313L16.062 7.33313C16.0278 7.38457 15.9814 7.42673 15.9268 7.45585C15.8723 7.48497 15.8115 7.50014 15.7497 7.5Z" fill="#FFD54F"/>
<path d="M16.125 20.355C16.125 20.5261 16.0571 20.6901 15.9361 20.8111C15.8151 20.932 15.6511 21 15.48 21H9.27001C9.09894 21 8.93489 20.932 8.81393 20.8111C8.69297 20.6901 8.62501 20.5261 8.62501 20.355C8.62462 20.2861 8.63603 20.2176 8.65876 20.1525L8.81251 19.6875C8.93433 19.8079 9.09875 19.8753 9.27001 19.875H12.645C12.8161 19.875 12.9801 19.807 13.1011 19.6861C13.2221 19.5651 13.29 19.4011 13.29 19.23C13.2904 19.1611 13.279 19.0926 13.2563 19.0275L12.375 16.2637C12.3253 16.1141 12.2298 15.9839 12.1018 15.8917C11.9739 15.7994 11.8202 15.7499 11.6625 15.75H14.085C14.2426 15.7504 14.396 15.8002 14.5238 15.8924C14.6516 15.9845 14.7473 16.1144 14.7975 16.2637L16.0913 20.1525C16.114 20.2176 16.1254 20.2861 16.125 20.355Z" fill="#FFCA28"/>
</svg>
