<svg width="20" height="20" viewBox="0 0 20 20" fill="none" xmlns="http://www.w3.org/2000/svg">
<g clip-path="url(#clip0_2766_6315)">
<path d="M17.6562 11.3281H10.4688C9.43322 11.3281 8.59375 12.1676 8.59375 13.2031V17.6562C8.59375 18.6918 9.43322 19.5312 10.4688 19.5312H17.6562C18.6918 19.5312 19.5312 18.6918 19.5312 17.6562V13.2031C19.5312 12.1676 18.6918 11.3281 17.6562 11.3281Z" fill="#8BC34A"/>
<path d="M9.53125 0.46875H2.34375C1.30822 0.46875 0.46875 1.30822 0.46875 2.34375V6.79688C0.46875 7.83241 1.30822 8.67188 2.34375 8.67188H9.53125C10.5668 8.67188 11.4062 7.83241 11.4062 6.79688V2.34375C11.4062 1.30822 10.5668 0.46875 9.53125 0.46875Z" fill="#F22428"/>
<path d="M0.68729 16.173L3.10448 19.1813C3.47987 19.6484 4.19159 19.648 4.56659 19.1805L6.97831 16.1727C7.34745 15.7125 7.01971 15.0297 6.42987 15.0297H5.59979V12.3965C5.59979 11.8789 5.17987 11.459 4.66229 11.459H3.00135C2.48377 11.459 2.06385 11.8789 2.06385 12.3965V15.0297H1.23573C0.645494 15.0297 0.317759 15.7133 0.687681 16.1734L0.68729 16.173Z" fill="#F22428"/>
<path d="M19.2809 3.95747L16.8638 0.949268C16.4884 0.48208 15.7766 0.482471 15.4016 0.950049L12.9899 3.95786C12.6208 4.41802 12.9485 5.10083 13.5384 5.10083H14.3684V7.73403C14.3684 8.25161 14.7884 8.67153 15.3059 8.67153H16.9669C17.4845 8.67153 17.9044 8.25161 17.9044 7.73403V5.10083H18.7325C19.3227 5.10083 19.6505 4.41724 19.2805 3.95708L19.2809 3.95747Z" fill="#8BC34A"/>
<path d="M15.8984 16.2891H14.957C14.873 16.2891 14.8047 16.2207 14.8047 16.1367V14.3359C14.8047 14.2066 14.6996 14.1016 14.5703 14.1016C14.441 14.1016 14.3359 14.2066 14.3359 14.3359V16.1367C14.3359 16.4793 14.6145 16.7578 14.957 16.7578H15.8984C16.0277 16.7578 16.1328 16.6527 16.1328 16.5234C16.1328 16.3941 16.0277 16.2891 15.8984 16.2891ZM18.2422 16.2891H17.3008C17.2168 16.2891 17.1484 16.2207 17.1484 16.1367V14.3359C17.1484 14.2066 17.0434 14.1016 16.9141 14.1016C16.7848 14.1016 16.6797 14.2066 16.6797 14.3359V16.1367C16.6797 16.4793 16.9582 16.7578 17.3008 16.7578H18.2422C18.3715 16.7578 18.4766 16.6527 18.4766 16.5234C18.4766 16.3941 18.3715 16.2891 18.2422 16.2891Z" fill="white"/>
<path d="M6.67969 3.08594C6.55039 3.08594 6.44531 3.19102 6.44531 3.32031V5.05859C6.44531 5.32773 6.22617 5.54688 5.95703 5.54688C5.68789 5.54688 5.46875 5.32773 5.46875 5.05859V3.32031C5.46875 3.19102 5.36367 3.08594 5.23438 3.08594C5.10508 3.08594 5 3.19102 5 3.32031V5.05859C5 5.58633 5.4293 6.01562 5.95703 6.01562C6.48477 6.01562 6.91406 5.58633 6.91406 5.05859V3.32031C6.91406 3.19102 6.80898 3.08594 6.67969 3.08594Z" fill="white"/>
<path d="M12.9488 14.1016C12.4566 14.1016 12.0562 14.502 12.0562 14.9941V16.5234C12.0562 16.6527 12.1613 16.7578 12.2906 16.7578C12.4199 16.7578 12.525 16.6527 12.525 16.5234V15.8801H13.373V16.5234C13.373 16.6527 13.4781 16.7578 13.6074 16.7578C13.7367 16.7578 13.8418 16.6527 13.8418 16.5234V14.9941C13.8418 14.502 13.4414 14.1016 12.9492 14.1016H12.9488ZM13.3727 15.4113H12.5246V14.9945C12.548 14.432 13.3496 14.4324 13.3727 14.9945V15.4113ZM10.741 14.5703H11.1871C11.3164 14.5703 11.4215 14.4652 11.4215 14.3359C11.4215 14.2066 11.3164 14.1016 11.1871 14.1016H10.741C10.1301 14.1016 9.63281 14.5988 9.63281 15.2098V15.6492C9.63281 16.2602 10.1301 16.7574 10.741 16.7574H11.1871C11.3164 16.7574 11.4215 16.6523 11.4215 16.523C11.4215 16.3937 11.3164 16.2887 11.1871 16.2887H10.741C10.3883 16.2887 10.1016 16.002 10.1016 15.6492V15.2098C10.1016 14.857 10.3883 14.5703 10.741 14.5703Z" fill="white"/>
<path d="M3.4418 3.08594H2.82422C2.56563 3.08594 2.35547 3.29609 2.35547 3.55469V5.78125C2.35547 5.91055 2.46055 6.01562 2.58984 6.01562C2.71914 6.01562 2.82422 5.91055 2.82422 5.78125V4.78516H3.4418C3.90703 4.78516 4.28516 4.40664 4.28516 3.9418V3.9293C4.28516 3.46406 3.90664 3.08594 3.4418 3.08594ZM3.81641 3.9418C3.81641 4.14844 3.64844 4.31641 3.4418 4.31641H2.82422V3.55469H3.4418C3.64844 3.55469 3.81641 3.72266 3.81641 3.9293V3.9418ZM9.49219 3.32031C9.49219 3.19102 9.38711 3.08594 9.25781 3.08594H7.77344C7.64414 3.08594 7.53906 3.19102 7.53906 3.32031C7.53906 3.44961 7.64414 3.55469 7.77344 3.55469H8.28125V5.78125C8.28125 5.91055 8.38633 6.01562 8.51562 6.01562C8.64492 6.01562 8.75 5.91055 8.75 5.78125V3.55469H9.25781C9.38711 3.55469 9.49219 3.44961 9.49219 3.32031Z" fill="white"/>
</g>
<defs>
<clipPath id="clip0_2766_6315">
<rect width="20" height="20" fill="white"/>
</clipPath>
</defs>
</svg>
