<svg width="22" height="22" viewBox="0 0 22 22" fill="none" xmlns="http://www.w3.org/2000/svg">
<path d="M15.3066 10.24C15.3066 10.24 15.2963 10.2468 15.2928 10.2503L15.3066 10.24ZM15.0625 8.4834C15.3719 8.83402 15.3891 9.34965 15.3444 9.82059C15.3306 9.96152 15.3066 10.1025 15.2928 10.2468" fill="white"/>
<path d="M8.09594 16.1909C7.46344 16.3628 6.83094 16.5346 6.20531 16.7031C5.85812 15.7303 5.11219 14.919 4.1875 14.4687C4.81656 14.0253 5.44563 13.5818 6.085 13.1487C6.09187 13.1418 6.10219 13.1384 6.10906 13.1349C6.17781 13.0868 6.24656 13.0421 6.31531 12.9974C6.38406 12.9493 6.45625 12.9046 6.525 12.8634C6.59719 12.8187 6.66937 12.7774 6.74156 12.7396C6.79312 12.7087 6.84812 12.6812 6.90312 12.6571C6.92375 12.6468 6.94094 12.6365 6.96156 12.6296C6.99594 13.2449 6.92375 13.9668 6.62125 14.3518C7.49437 14.7059 7.58719 15.3968 8.09594 16.1909ZM11.2172 14.9396C10.7806 15.0531 10.3303 15.1115 9.88 15.1115C9.65656 15.1115 9.4125 15.0874 9.26125 14.9259C9.12719 14.7815 9.10656 14.5615 9.09969 14.3656C9.06187 13.7159 9.0275 13.0593 8.99312 12.4096H9.01375C9.12719 12.4165 9.24406 12.4234 9.36094 12.4234C9.39531 12.4234 9.42625 12.4234 9.46062 12.4199C9.495 12.4199 9.53281 12.4199 9.56719 12.4165C9.6325 12.4165 9.70125 12.4131 9.77344 12.4028H9.78031C9.80437 12.4028 9.82844 12.3993 9.85594 12.3959C9.935 12.389 10.0175 12.3821 10.1 12.3684C10.1825 12.3581 10.265 12.3443 10.3509 12.3306C10.3509 12.8187 10.4987 13.2999 10.7806 13.6953C10.9181 13.8946 11.0866 14.0665 11.2137 14.2728C11.3341 14.479 11.2756 14.7093 11.2137 14.9396H11.2172Z" fill="#00FF8C"/>
<path d="M10.3545 12.3232C10.2685 12.3404 10.186 12.3542 10.1035 12.3645C10.186 12.3507 10.2685 12.337 10.3545 12.3232Z" fill="#00FF8C"/>
<path d="M18.5418 8.1504C18.5555 8.53196 18.473 8.93415 18.4696 9.3879C18.6002 9.55634 18.5383 9.78321 18.4043 9.95852C18.3527 10.0238 18.2874 10.0823 18.2221 10.127C17.978 10.2851 17.6721 10.3504 17.4486 10.536C17.2218 10.7285 17.1083 11.0138 16.9777 11.282C16.8471 11.5432 16.6683 11.8148 16.3899 11.9076C15.9465 12.0588 15.4686 11.6635 15.338 11.2132C15.2452 10.9038 15.2624 10.5807 15.2968 10.2473C15.0493 10.426 14.7571 10.6116 14.434 10.7938C14.0043 11.0379 13.7774 11.5363 13.9046 12.0141C13.9218 12.0795 13.939 12.1413 13.9527 12.2066C14.1208 12.6408 14.3964 13.0252 14.7536 13.3238C14.8843 13.4373 15.0355 13.537 15.1558 13.6745C15.2727 13.8016 15.3621 13.977 15.3449 14.1557C15.094 14.087 14.8361 14.1591 14.5818 14.2141C14.3343 14.2691 13.6158 14.6163 13.3958 14.4926C13.1621 14.3516 13.0555 14.0732 13.0005 13.8051C12.9455 13.5404 12.9146 13.2654 12.7736 13.0282C12.7255 12.9629 12.6155 12.7841 12.4952 12.5882C12.37 12.3866 12.1823 12.2315 11.9608 12.1465C11.7392 12.0614 11.4959 12.0512 11.268 12.1173C10.9586 12.2032 10.6493 12.2754 10.3536 12.327C10.2677 12.3373 10.1852 12.351 10.1027 12.3648C10.0202 12.3751 9.93771 12.3854 9.85865 12.3923C9.83115 12.3957 9.80709 12.3991 9.78302 12.3991H9.77615C9.7074 12.406 9.63865 12.4095 9.5699 12.4129C9.53552 12.4163 9.49771 12.4163 9.46334 12.4163H9.36365C9.24677 12.4163 9.1299 12.4129 9.01646 12.406H8.99584C8.3874 12.3854 7.77209 12.3441 7.20146 12.5366C7.1224 12.5641 7.04334 12.5951 6.96771 12.6295C6.94709 12.6363 6.9299 12.6466 6.90927 12.657C6.85427 12.681 6.79927 12.7085 6.74771 12.7395C6.67209 12.7773 6.60334 12.8185 6.53115 12.8632C6.4624 12.9045 6.39021 12.9491 6.32146 12.9973C6.25271 13.0385 6.18396 13.0866 6.11521 13.1348C6.10834 13.1348 6.09802 13.1416 6.09115 13.1485C5.45521 13.5748 4.81927 14.0148 4.19365 14.4685C4.15617 14.4925 4.11949 14.5178 4.08365 14.5441C3.60584 14.8845 3.08677 15.2488 2.82552 15.7816C2.57802 16.287 2.63302 16.9882 3.09708 17.3045C3.23459 17.3938 3.39615 17.4488 3.51302 17.5588C3.63334 17.6723 3.6849 17.882 3.57146 17.992C3.2999 18.1466 3.02833 18.3013 2.72583 18.3666C2.42677 18.4354 2.0899 18.401 1.84583 18.2085C1.54333 17.9713 1.46427 17.5485 1.45396 17.1635C1.43333 16.2113 1.72208 15.2626 2.26521 14.4857C2.60896 13.9976 3.04896 13.5748 3.32396 13.0488C3.54052 12.626 3.64021 12.1482 3.61271 11.6773C3.61271 11.6773 1.90427 12.8563 0.814585 11.5776C0.398647 11.0963 0.309272 10.4948 0.360835 9.94134C0.39521 9.55634 0.914272 9.4979 1.04833 9.86227C1.13771 10.1132 1.27177 10.3504 1.45052 10.5395C2.07615 11.196 3.3549 10.3882 3.3549 10.3882C3.33084 9.94134 3.47177 9.48071 3.81209 9.20915C4.2899 8.83102 4.91552 8.70384 5.4724 8.45977C6.66521 7.93727 7.53834 6.89915 8.46302 5.98477C9.39459 5.0704 11.6118 3.60259 12.9146 3.59571C14.3446 3.59227 15.5477 4.60634 16.603 5.56196C17.1977 6.09821 17.7993 6.64134 18.2668 7.29102C18.4661 7.56259 18.5349 7.83415 18.5452 8.11946V8.14352L18.5418 8.1504Z" fill="#00FF8C"/>
<path d="M10.3545 12.3232C10.2685 12.3404 10.186 12.3542 10.1035 12.3645C10.186 12.3507 10.2685 12.337 10.3545 12.3232Z" fill="#00FF8C"/>
<path d="M21.6562 8.00928C21.6562 8.00928 21.529 9.97896 18.4043 9.95834C18.5384 9.78303 18.6002 9.55615 18.4696 9.38771C18.473 8.9374 18.5555 8.53521 18.5418 8.15021C19.5249 8.76896 20.6593 8.69678 21.6562 8.00928Z" fill="white"/>
</svg>
